<svg xmlns="http://www.w3.org/2000/svg" viewBox="0 0 28.66 52.5"><defs><style>.cls-1{fill:#fff;}</style></defs><title>Alimentos</title><g id="Capa_2" data-name="Capa 2"><g id="Capa_1-2" data-name="Capa 1"><g id="soy-sauce"><g id="Grupo_3" data-name="Grupo 3"><g id="Grupo_2" data-name="Grupo 2"><path id="Trazado_2" data-name="Trazado 2" class="cls-1" d="M24,22.94c-.48-1.93-.87-3.48-1-4.29L25.56,6h.14a3,3,0,0,0,0-6H3A3,3,0,0,0,3,6H3.1L5.65,18.65h0c-.16.81-.54,2.36-1,4.29C3.62,27,2.09,33.2,1.17,38.69-.36,47.85.6,50.37,1.46,51.47a2.58,2.58,0,0,0,2.09,1H25.11a2.59,2.59,0,0,0,2.09-1c.86-1.1,1.82-3.62.29-12.78C26.56,33.2,25,27,24,22.94ZM3,4A1,1,0,0,1,3,2.05H25.7A1,1,0,0,1,25.7,4ZM5.19,6H23.47L22.32,11.7h-16ZM7.7,18.44l-1-4.69H21.91L21,18.44a.92.92,0,0,0,0,.37c.14.82.54,2.42,1.08,4.63.24.95.5,2,.78,3.15-1.78,1.13-5.27.39-8.65-.33-2.82-.6-5.72-1.22-8-.83.17-.71.34-1.37.49-2,.55-2.21.94-3.81,1.08-4.63a1.15,1.15,0,0,0,0-.37ZM25.59,50.2a.55.55,0,0,1-.48.24H3.54a.52.52,0,0,1-.47-.24c-.54-.69-1.24-3.05.12-11.17.63-3.75,1.55-7.84,2.39-11.35,1.87-.75,5.06-.08,8.15.58a32.9,32.9,0,0,0,6.48.95,7.51,7.51,0,0,0,3.1-.56c.77,3.28,1.58,7,2.16,10.38C26.82,47.15,26.12,49.52,25.59,50.2Z"/></g></g><g id="Grupo_5" data-name="Grupo 5"><g id="Grupo_4" data-name="Grupo 4"><path id="Trazado_3" data-name="Trazado 3" class="cls-1" d="M12.54,46.89h0a1,1,0,1,0,0,2h0a1,1,0,0,0,0-2Z"/></g></g><g id="Grupo_7" data-name="Grupo 7"><g id="Grupo_6" data-name="Grupo 6"><path id="Trazado_4" data-name="Trazado 4" class="cls-1" d="M9.57,46.89H5.36a1,1,0,1,0,0,2H9.57a1,1,0,0,0,0-2Z"/></g></g></g></g></g></svg>