<svg xmlns="http://www.w3.org/2000/svg" viewBox="0 0 53.22 69.42"><defs><style>.cls-1{fill:#fff;}</style></defs><title>Bebidas-aclcoholicas</title><g id="Capa_2" data-name="Capa 2"><g id="Capa_1-2" data-name="Capa 1"><g id="Outline"><path id="Trazado_88" data-name="Trazado 88" class="cls-1" d="M19.63,23.72l-1.12-18V2.31A2.31,2.31,0,0,0,16.2,0H9.26A2.32,2.32,0,0,0,6.94,2.31V5.78A1.16,1.16,0,0,0,8.1,6.94h8.17l.14,2.32H11.57v2.31h5l.8,12.8a1.12,1.12,0,0,0,.43.83,14.22,14.22,0,0,1,5.26,9.51H2.4A14.18,14.18,0,0,1,7.66,25.2a1.15,1.15,0,0,0,.43-.83L9,9.33,6.72,9.18,5.81,23.72A16.51,16.51,0,0,0,0,36.33V65.94a3.48,3.48,0,0,0,3.47,3.48H22a3.48,3.48,0,0,0,3.47-3.48V36.33A16.47,16.47,0,0,0,19.63,23.72ZM16.2,4.63H9.26V2.31H16.2ZM23.14,37V57.85H2.31V37ZM22,67.1H3.47a1.16,1.16,0,0,1-1.16-1.16V60.16H23.14V66A1.16,1.16,0,0,1,22,67.1Z"/><rect id="Rect치ngulo_218" data-name="Rect치ngulo 218" class="cls-1" x="5" y="39" width="2" height="3"/><rect id="Rect치ngulo_219" data-name="Rect치ngulo 219" class="cls-1" x="5" y="44" width="2" height="12"/><path id="Trazado_89" data-name="Trazado 89" class="cls-1" d="M48.59,24.29H32.39a4.64,4.64,0,0,0-4.62,4.63v7.73a46,46,0,0,0,2.32,14.48l1,15.05a3.49,3.49,0,0,0,3.47,3.24H46.43a3.49,3.49,0,0,0,3.46-3.24l1-15.05a46.25,46.25,0,0,0,2.33-14.48V28.93A4.65,4.65,0,0,0,48.59,24.29ZM30.08,28.92a2.32,2.32,0,0,1,2.31-2.31h16.2a2.32,2.32,0,0,1,2.32,2.31v1.16H48.59a3.48,3.48,0,0,0-3.47,3.47v6.94a1.16,1.16,0,0,1-2.31,0h0V33.55a3.48,3.48,0,0,0-3.47-3.47H30.08ZM46.43,67.1H34.56A1.17,1.17,0,0,1,33.4,66l-.08-1.23H47.67L47.58,66a1.15,1.15,0,0,1-1.15,1.08Zm2.22-16.56a1.36,1.36,0,0,0-.06.29l-.77,11.64H33.17l-.78-11.64a1.36,1.36,0,0,0-.06-.29,44,44,0,0,1-2.25-13.89V32.4h9.25a1.15,1.15,0,0,1,1.16,1.15v6.94a3.47,3.47,0,0,0,6.94,0v-7a1.15,1.15,0,0,1,1.16-1.15H50.9v4.25a44,44,0,0,1-2.25,13.89Z"/><path id="Trazado_90" data-name="Trazado 90" class="cls-1" d="M38.76,50.9a2.9,2.9,0,1,0,2.89,2.9h0A2.9,2.9,0,0,0,38.76,50.9Zm0,3.48a.58.58,0,0,1,0-1.16.58.58,0,0,1,0,1.16Z"/><path id="Trazado_91" data-name="Trazado 91" class="cls-1" d="M38.18,45.7a1.74,1.74,0,1,0-1.74,1.73h0A1.73,1.73,0,0,0,38.18,45.7Z"/></g></g></g></svg>