<svg xmlns="http://www.w3.org/2000/svg" viewBox="0 0 28.77 65.78"><defs><style>.cls-1{fill:#fff;}</style></defs><title>Gaseosas y jugos</title><g id="Capa_2" data-name="Capa 2"><g id="Capa_1-2" data-name="Capa 1"><g id="water"><g id="Grupo_9" data-name="Grupo 9"><g id="Grupo_8" data-name="Grupo 8"><path id="Trazado_5" data-name="Trazado 5" class="cls-1" d="M28.75,43.64A4.51,4.51,0,0,0,27,40a4.55,4.55,0,0,0,.82-6.37,4.47,4.47,0,0,0-1-1,5.08,5.08,0,0,0,1.91-4v-9.6l-9.24-12h2V0H7.21V7.08H9.37L0,19.11v9.6a5.11,5.11,0,0,0,2,4A4.57,4.57,0,0,0,.89,39.07a5,5,0,0,0,.93,1A4.58,4.58,0,0,0,1,46.47a4.45,4.45,0,0,0,.94.9,5.11,5.11,0,0,0-2,4V59.6a5.21,5.21,0,0,0,5.15,5.15H10.3v-.09a5.11,5.11,0,0,0,3.09,1.12h2.06a5.13,5.13,0,0,0,3.09-1.12v.09h5.15a5.1,5.1,0,0,0,5-5.15V51.36a5.08,5.08,0,0,0-1.91-4A4.56,4.56,0,0,0,28.75,43.64ZM9.14,5.15V1.93H19.57V5.15ZM11.8,7.08H17l8.82,11.46H3Zm12.4,34a2.64,2.64,0,1,1,0,5.28H21.63v1.93h2.06a3,3,0,0,1,3.09,3V59.6a3.17,3.17,0,0,1-3.09,3.22H20.07a5.89,5.89,0,0,0,.47-2.19H18.61a3.22,3.22,0,0,1-3.16,3.22H13.39a3.21,3.21,0,0,1-3.15-3.22H8.31a5.88,5.88,0,0,0,.46,2.19H5.15A3.26,3.26,0,0,1,1.94,59.6V51.36a3.15,3.15,0,0,1,3.21-3.09h10.3V46.34H4.63a2.64,2.64,0,0,1,0-5.28H15.45V39.13H4.63a2.64,2.64,0,0,1,0-5.28H15.45V31.92H5.15A3.26,3.26,0,0,1,1.94,28.7V20.47H26.78V28.7a3.17,3.17,0,0,1-3.09,3.22H21.63v1.93H24.2a2.64,2.64,0,0,1,0,5.28H21.63v1.93Z"/></g></g><g id="Grupo_11" data-name="Grupo 11"><g id="Grupo_10" data-name="Grupo 10"><rect id="Rectángulo_163" data-name="Rectángulo 163" class="cls-1" x="7.21" y="14.42" width="2.06" height="1.93"/></g></g><g id="Grupo_13" data-name="Grupo 13"><g id="Grupo_12" data-name="Grupo 12"><rect id="Rectángulo_164" data-name="Rectángulo 164" class="cls-1" x="9.27" y="12.36" width="2.06" height="1.93"/></g></g><g id="Grupo_15" data-name="Grupo 15"><g id="Grupo_14" data-name="Grupo 14"><rect id="Rectángulo_165" data-name="Rectángulo 165" class="cls-1" x="17.51" y="39.13" width="2.06" height="1.93"/></g></g><g id="Grupo_17" data-name="Grupo 17"><g id="Grupo_16" data-name="Grupo 16"><rect id="Rectángulo_166" data-name="Rectángulo 166" class="cls-1" x="17.51" y="31.92" width="2.06" height="1.93"/></g></g><g id="Grupo_19" data-name="Grupo 19"><g id="Grupo_18" data-name="Grupo 18"><rect id="Rectángulo_167" data-name="Rectángulo 167" class="cls-1" x="17.51" y="46.34" width="2.06" height="1.93"/></g></g></g></g></g></svg>