<svg xmlns="http://www.w3.org/2000/svg" viewBox="0 0 67.26 60.76"><defs><style>.cls-1{fill:#fff;}</style></defs><title>Golosinas</title><g id="Capa_2" data-name="Capa 2"><g id="Capa_1-2" data-name="Capa 1"><g id="bakery"><path id="Trazado_33" data-name="Trazado 33" class="cls-1" d="M67.26,11.94V7.6c0-2.11-2.93-3.66-8.71-4.61-.19-1.69-2-3-4.31-3a4.35,4.35,0,0,0-4.1,2.22c-.79,0-1.58,0-2.4,0-7.26,0-19.53,1.14-19.53,5.42v4.34a2.73,2.73,0,0,0,1.29,2.17,3.12,3.12,0,0,0-1.17,1.51,20.4,20.4,0,0,0-7.71-1.51c-.38,0-.75,0-1.11.05l-1.55.1.32,1.26a3.24,3.24,0,0,1-.09,1.9l-.33.93.89.42a3.23,3.23,0,0,1,0,5.86l-.89.42.33.93a3.23,3.23,0,0,1-4.14,4.14l-.93-.33-.42.89a3.24,3.24,0,0,1-5.86,0l-.42-.89-.93.33a3.24,3.24,0,0,1-3.19-.58L.94,28.39l-.4,1.74A20.55,20.55,0,0,0,15.92,54.8a21.15,21.15,0,0,0,4.69.53,20.62,20.62,0,0,0,7.6-1.46v1.46c0,4.28,12.27,5.43,19.52,5.43s19.53-1.15,19.53-5.43V51A2.7,2.7,0,0,0,66,48.83a2.73,2.73,0,0,0,1.29-2.17V42.31A2.73,2.73,0,0,0,66,40.14,2.73,2.73,0,0,0,67.26,38V33.64A2.73,2.73,0,0,0,66,31.47a2.73,2.73,0,0,0,1.29-2.17V25A2.73,2.73,0,0,0,66,22.79a2.73,2.73,0,0,0,1.29-2.17V16.28A2.73,2.73,0,0,0,66,14.11,2.73,2.73,0,0,0,67.26,11.94Zm-2.17,0c-.2,1.1-6.51,3.26-17.35,3.26s-17.15-2.15-17.36-3.26V10.33c3.85,2.07,12,2.7,17.36,2.7s13.5-.63,17.35-2.7ZM54.24,2.18c1.33,0,2.17.64,2.17,1.09s-.84,1.08-2.17,1.08-2.17-.64-2.17-1.08S52.92,2.18,54.24,2.18ZM35.81,5.41V6.52H38V5a65,65,0,0,1,9.76-.68c.83,0,1.64,0,2.45.05a4.39,4.39,0,0,0,4.06,2.12,4.82,4.82,0,0,0,3.62-1.44C63.56,6,65,7.32,65.1,7.6c-.2,1.11-6.52,3.26-17.36,3.26-2.4,0-4.57-.11-6.51-.29V8.69H39.06v1.65c-5.47-.71-8.54-2-8.68-2.73h0C30.49,7,32.39,6.11,35.81,5.41ZM2.18,34.72a17.81,17.81,0,0,1,.2-2.63,5.35,5.35,0,0,0,3,.31,5.38,5.38,0,0,0,7.5,1.36A5.49,5.49,0,0,0,14.2,32.4a5.39,5.39,0,0,0,6.27-4.34,5.63,5.63,0,0,0,0-1.92,5.4,5.4,0,0,0,1.35-7.51,5.1,5.1,0,0,0-1.35-1.35,6.74,6.74,0,0,0,.08-1h.07A18.44,18.44,0,1,1,2.18,34.72Zm38.65,4c2.2.2,4.51.31,6.91.31,5.37,0,13.5-.63,17.35-2.7V38c-.2,1.11-6.52,3.26-17.35,3.26a73.84,73.84,0,0,1-7.44-.38c.21-.69.39-1.4.53-2.1Zm6.91,19.84c-10.84,0-17.16-2.16-17.36-3.26V53.71c3.51,1.86,10.87,2.71,17.36,2.71,5.37,0,13.5-.63,17.35-2.7v1.61c-.2,1.1-6.52,3.26-17.35,3.26ZM65.09,51c-.2,1.1-6.52,3.26-17.35,3.26-7.58,0-13.32-1-15.94-2.24a23.05,23.05,0,0,0,1.95-1.41,58.72,58.72,0,0,0,14,1.48,72.19,72.19,0,0,0,8.81-.52l-.27-2.15a69.77,69.77,0,0,1-8.54.5,60.81,60.81,0,0,1-12.12-1.1A22.65,22.65,0,0,0,37.17,47a67.91,67.91,0,0,0,10.57.78c5.37,0,13.5-.63,17.35-2.7v1.61c0,.28-1.34,1.53-6.69,2.45l.37,2.14A28.48,28.48,0,0,0,63.68,50c1.26.57,1.41,1,1.41,1Zm0-8.68c-.2,1.11-6.52,3.26-17.35,3.26A66.68,66.68,0,0,1,38.48,45a21.3,21.3,0,0,0,1-2,73,73,0,0,0,8.23.46c4.79,0,11.77-.5,16-2.07,1.24.57,1.39,1,1.39,1Zm0-8.68c-.2,1.11-6.52,3.26-17.35,3.26-2.3,0-4.5-.11-6.6-.31,0-.61.09-1.23.09-1.86a2.64,2.64,0,0,0,0-.29c1.75.15,3.55.26,5.43.29l0-2.17c-2,0-3.81-.14-5.6-.31a21,21,0,0,0-.39-2.19c2.24.22,4.6.33,7.06.33,5.38,0,13.51-.62,17.36-2.7v1.61c-.16.87-5.24,3.1-16.29,3.26l0,2.16c1.33,0,9.9-.21,14.87-2.06,1.23.57,1.38,1,1.38,1Zm0-8.68c-.2,1.11-6.52,3.26-17.35,3.26A68.65,68.65,0,0,1,40,27.8a20.49,20.49,0,0,0-1-2.26,74.4,74.4,0,0,0,8.7.51c4.79,0,11.78-.5,16-2.08,1.24.57,1.39,1,1.39,1Zm0-8.67c0,.28-1.34,1.52-6.69,2.44l.37,2.14A21.8,21.8,0,0,0,65.09,19v1.61c-.2,1.11-6.52,3.26-17.35,3.26a65.29,65.29,0,0,1-10.08-.73,20.47,20.47,0,0,0-2-2.46,67.91,67.91,0,0,0,12.07,1,70.29,70.29,0,0,0,8.82-.52L56.28,19a69.77,69.77,0,0,1-8.54.5c-10.84,0-17.16-2.15-17.36-3.25,0,0,.15-.42,1.39-1,4.19,1.57,11.17,2.07,16,2.07s11.77-.5,16-2.07c1.24.57,1.39,1,1.39,1Z"/><path id="Trazado_34" data-name="Trazado 34" class="cls-1" d="M46.65,6.52h2.17V8.69H46.65Z"/><path id="Trazado_35" data-name="Trazado 35" class="cls-1" d="M57.5,6.52h2.17V8.69H57.5Z"/><path id="Trazado_36" data-name="Trazado 36" class="cls-1" d="M14.11,45.57a2.17,2.17,0,1,1,0-4.34V39.06a4.34,4.34,0,1,0,4.34,4.34H16.28A2.17,2.17,0,0,1,14.11,45.57Z"/><path id="Trazado_37" data-name="Trazado 37" class="cls-1" d="M30.38,23.88V26a2.17,2.17,0,0,1,0,4.34v2.17a4.34,4.34,0,1,0,.13-8.67Z"/><path id="Trazado_38" data-name="Trazado 38" class="cls-1" d="M29.3,39.06a3.26,3.26,0,1,0,3.25,3.26h0A3.26,3.26,0,0,0,29.3,39.06Zm0,4.34a1.09,1.09,0,1,1,1.08-1.08h0A1.09,1.09,0,0,1,29.3,43.4Z"/><path id="Trazado_39" data-name="Trazado 39" class="cls-1" d="M19.53,33.64H21.7v2.17H19.53Z"/><path id="Trazado_40" data-name="Trazado 40" class="cls-1" d="M5.43,36.89H7.6v2.17H5.43Z"/><path id="Trazado_41" data-name="Trazado 41" class="cls-1" d="M20.62,47.74h2.17v2.17H20.62Z"/><path id="Trazado_42" data-name="Trazado 42" class="cls-1" d="M25,22.79h2.17V25H25Z"/><path id="Trazado_43" data-name="Trazado 43" class="cls-1" d="M33.63,35.81H35.8V38H33.63Z"/></g></g></g></svg>