<svg xmlns="http://www.w3.org/2000/svg" viewBox="0 0 398.01 315.34"><defs><style>.cls-1{fill:red;}</style></defs><title>Grupo 74</title><g id="Capa_2" data-name="Capa 2"><g id="Capa_1-2" data-name="Capa 1"><g id="Grupo_74" data-name="Grupo 74"><g id="Grupo_73" data-name="Grupo 73"><path id="Trazado_51" data-name="Trazado 51" class="cls-1" d="M37.28,21.59C39.8,25.64,45,25.43,48.2,29.16c9.86,11.58,7.4,24.42,4.92,37.26-1.12,5.8-3.74,11.3-5.32,17-.94,3.42-1.87,7.62,2,9.7a10,10,0,0,0,10.86-.89c4.19-3.11,8.2-6.45,12.35-9.61,21-16,40.49-34,62.76-48.15,13.67-8.7,26.29-18.7,39.33-28.19a38.24,38.24,0,0,1,13-5.74c2.28-.61,5.15-1.31,6.4,1.2s-1.59,3.91-3.12,5c-9.42,6.73-18.86,13.45-28.61,19.69A124.55,124.55,0,0,0,137,47.72c-5.13,5.69-12,9.06-17.86,13.91-9.22,7.68-17.29,16.42-25.89,24.63-7.68,7.33-16.51,13.25-23.59,21.46-4.51,5.22-2.66,7.92.5,11.27C81,130.43,92,141.76,104.49,151.24c12,9.06,20.76,20.59,30.09,32.1,10.93,13.5,19,29.18,33.31,40.41,8.79,6.9,16.92,15.19,25.39,22.83,1.77,1.6,5.62,3.93,2.81,6.84-2.52,2.62-5-.55-7.4-2.08-21.15-13.62-38.59-31.63-56.6-48.85-5.83-5.56-12.27-11.25-16-18.86a12.91,12.91,0,0,0-4.82-5.07c-15.07-10-30-20.21-45.18-30a50.3,50.3,0,0,0-12.79-5.66c-3.86-1.15-7.37-.58-8.62,4.67a176.21,176.21,0,0,0-4.25,32.58c-.55,11.74-3.43,23.12-4,34.84-.18,3.75-.51,7.33.49,11-3.57,4.66-2.38,9.72-1.22,14.78-2.63,6.89-1.55,14.14-2.09,21.24-.33,3.16-.55,6.32,1.18,9.21l-.14.4.4.17a53.6,53.6,0,0,0,1.75,14.92c-3,1.51-3.57,3.85-2.23,6.8-6.88,3.79-9.63-1.64-11.07-6.12-3.07-9.59-6.72-19.1-8-29.18-.17-1.28.62-2.69,1-4,1.63-3.54.6-7.17.33-10.77-.48-4.48,2-9.4-2.25-13.36-.94-.87.54-2,1.08-3,4.15-7.75,3.12-15.77,1.11-23.82,1-5-.2-9.59-2.4-14-1.77-8.4.3-17.26-3.07-25.47.58-2.68-.2-5-1.44-7.44-2.32-4.53-3.46-9.84-2.5-14.48a62.23,62.23,0,0,0-.75-27.29c-2.11-3.45-2.85-7.07-.85-10.78,2.75-5.08-2-9.67-.82-14.56C8.39,74,4.93,59.66.61,45.31c-4-13.23,12.26-28.57,26.33-25.37C30.33,20.7,33.52,23.07,37.28,21.59Z"/><path id="Trazado_52" data-name="Trazado 52" class="cls-1" d="M207.26,224.51c2.25-11.87,2.24-28.66,9.48-43.72a51.87,51.87,0,0,1,22.51-23.72c7.05-3.8,13.93.8,20.81-.83,1-.24,1.12,1.79,1.41,2.93,2.13,8.26.33,15.24-4.1,22.84-8.24,14.14-16.86,28.43-16.35,46,.44,15.09,12.83,28.82,27.66,31.54,11.31,2.08,21.13,1.33,29.77-6.94,12.5-12,12-31.67-1.73-46-4.27-4.47-9.17-8.34-13.85-12.41-3-2.63-4.84-6.05-2.59-9.44,2.6-3.93,5.53-.64,8.5.7a68,68,0,0,1,29.53,25c7.25,11,9.22,22.06,5,34.55C316.11,266,303.1,279.13,279.72,282A83.42,83.42,0,0,1,238.5,277a12.27,12.27,0,0,1-3.16-1.67C220,263.38,206.33,250.46,207.26,224.51Z"/><path id="Trazado_53" data-name="Trazado 53" class="cls-1" d="M370.54,229.36c.41-8.23.65-15.93-7.49-21.72-3.63-2.58-4.3-8.34-4.47-13.24-.53-15.45.55-30.91-2.62-46.32-1.76-8.57,8-15.72,16.24-12,8.06,3.65,16.28,7.42,23.18,13.32,3,2.53,3.7,6.33.74,7.9-9.84,5.2-9.46,14.81-10.73,23.38-1.7,11.51-3.32,23.25-2.88,34.82.5,13.2-.67,26.36,1.81,39.75,2.1,11.35,2,23.42,3.34,35.11a151.87,151.87,0,0,0,3.63,18.18c.72,3,.3,5.51-2.51,6.5-3.39,1.2-4.5-1.66-5.36-4.25-5.45-16.3-9.6-32.88-10.14-50.17C373,250.15,369.14,240,370.54,229.36Z"/><path id="Trazado_54" data-name="Trazado 54" class="cls-1" d="M386,53.1c2.62.49,6-1.05,7.56,2.44,1.33,3.06-.44,5.44-2.18,7.82-3.47,4.72-4.65,9.26-1.23,15,3.53,6,.35,15.82-5.37,20.49-5.41,4.44-14.27,5.29-19.92,1.1s-11.24-8.86-14.54-15.35c-7.23-14.17,1.1-28.47,17-28.17C373.93,56.61,379.31,51.85,386,53.1Z"/></g></g></g></g></svg>