<svg xmlns="http://www.w3.org/2000/svg" viewBox="0 0 224.48 182.9"><defs><style>.cls-1{fill:#fdfdfd;}.cls-2{fill:#b52123;}.cls-3{fill:#100605;}</style></defs><title>Grupo 75</title><g id="Capa_2" data-name="Capa 2"><g id="Capa_1-2" data-name="Capa 1"><g id="Grupo_75" data-name="Grupo 75"><path id="Trazado_55" data-name="Trazado 55" class="cls-1" d="M186.22,109c1.08,1.46,1.62,2,2.72-.29,2.57-5.32,5.48-10.49,7.79-15.94a56.38,56.38,0,0,0,4.07-13.66c.17-1.13.26-3.25-1.13-2.65-2.69,1.17-3.19-.75-4.16-2.07a4.6,4.6,0,0,0-3-1.84c-2.16-.43-4.46.29-6.57-.81-.67-.35-1,.35-1.36.86-2,2.89-3.46,5.85-2.94,9.6a49.86,49.86,0,0,1,0,13c-.19,1.49,0,2.53,1.59,3.12,2.29.86,2.92,2.42,2.12,4.84A6.41,6.41,0,0,0,186.22,109Zm5.71-63.68c-2.88,2-4.87,4.33-5.39,7.65-.15,1-.55,2.16,1,2.36,2,.25,2.52,1.79,3,3.36a16.09,16.09,0,0,0,2.44,5.18c1.49,2.08,3.58,3.42,6.25,2.73a5.48,5.48,0,0,0,4.13-5.4c.17-3,0-6-.09-9.06a3.89,3.89,0,0,0-3-4c-1.32-.44-2.91-.88-3.54-2.18C195.19,42.78,193.58,43.25,191.93,45.27ZM196.11,117c7-9.87,12-20.2,9.59-32.8a23.28,23.28,0,0,0-1.13-4.73c-2.1,1.9-2.94,4.18-3.78,6.4a52.74,52.74,0,0,0-3,9.24c-.46,2.64-3.67,5.16-.74,8.11-2.58,4.45.9,9.27-.94,13.78ZM167,118.61c1.22,3,.39,5-2.1,6.72-2.05,1.39-3.19,3.66-4.06,5.94-.77,2-1.58,4.41,1,5.6,2.86,1.3,3-1.72,3.76-3.16,1.46-2.82,3.21-4.91,6.68-4.78,1.84.07,2.81-1.2,3.41-2.59,1.15-2.7,2.08-5.49,3.1-8.25a2.25,2.25,0,0,0-.33-2.27c-.72-.84-1.52,0-2.16.28-2.81,1.48-5.64,2.78-9.31,2.51Zm-93.55,61.9a10.09,10.09,0,0,0,5.43,2c6.68.89,13.32.15,20-.32,4.7-.34,7.58-2.68,10-6.57-9.18,3.3-18.86,2.2-28,4.41C78.77,180.51,76.52,180.32,73.48,180.51Z"/><path id="Trazado_56" data-name="Trazado 56" class="cls-2" d="M23.15,132.72c.74,4.35,3.09,7.19,5.1,10.05,3.3,4.7,7.93,8,13,10.68,7.17,3.74,14.37,7.48,22.64,8.2.77.06,2.36.75,2-.65-.5-1.88,1.28-1.68,2-2.67a37.51,37.51,0,0,0-5.34-2c-1.73-.37-3.56-.63-4.55-2.12-2.36-3.57-6.55-5.09-9.07-8.44-.54-.72-1.48-1-2.08-.27s.2,1.58.87,1.91c1.57.75,3,1.54,3.55,4.15-6.36-3.79-13.55-5.24-17-12.32-.91-1.84-2.81-3.2-4.35-4.89a2.15,2.15,0,0,0,.38,2.53,1.64,1.64,0,0,1-.2,2.23c-1,.9-1.4-.31-1.85-.8C26.59,136.69,25.11,134.94,23.15,132.72Zm40.94,14c-.66-.75-1-.73-1.43-.62-3.56.9-4.48.09-4-3.42.18-1.39.07-2.83.35-4.2s-.44-1.85-1.62-1.7a8.17,8.17,0,0,0-4.26,1.33,7.23,7.23,0,0,0-2.78,5.77c0,2,2.49,1.5,3.92,1.76,1.72.31,2.23,1.44,2.78,2.8.39,1,1.11,2.54,2.3,1.17S62.38,147.65,64.09,146.73Z"/><path id="Trazado_57" data-name="Trazado 57" class="cls-3" d="M144.83,97.63c-1.53.91-2.54,2.72-4.55,2.76-.87,0-2,.2-2.48-.76s.62-1.55,1.24-2.13a23.13,23.13,0,0,1,2-1.5c-4.21-.06-7.69,3.14-12.58,2.23,2.56-2.25,5.09-3.73,5.48-6.85.23-1.86-.14-2.82-2.22-2.24-.65.17-1.41.83-1.9,0a1.39,1.39,0,0,1,.59-1.87,1.36,1.36,0,0,1,.28-.11c5.94-1.64,9.49-7.11,15.09-9.28a8.18,8.18,0,0,1,5-.69c4.11,1,7.42-.3,10.16-3.5a9.68,9.68,0,0,1,3.59-2.75c2.94-1.15,3.94-3.56,4-6.19a37.6,37.6,0,0,1,4.64-17.89c1.27-2.29,1.24-5.37,1.52-8.12.34-3.26,2.64-5.62,3.57-8.61,1.76-5.68,3.82-11.26,5.8-16.86,1.6-4.52,4.85-7.36,9.88-8.64-2.53-1-1.56-2.07-.85-3.17,2.1-.92,4.73.57,6.58-1.45l.79.78c1.39,2.07,4,2.42,5.65,4.37,3.78,4.59,5,10.07,6,15.64,1.19,6.12,2,12.3,3.45,18.41.53,2.26-.07,5.64-.46,8.45-1.26,9-.57,18-.55,26.95,0,1.58,0,3.16-.08,4.74l.85.13.57,1c-1.78.15-1.51,1.5-1.55,2.67l-.59,4a2.38,2.38,0,0,0-.55,2.59l-.22,1.27a17.61,17.61,0,0,0,.63,9.7c-.16,1.15.11,2.39-.77,3.55-1.21-.9-.65-2.64-2-3.74-1,3-2,5.88-2.88,8.73-6.75,20.92-18.66,38-37.25,50.12-4.11,2.67-8.86,4-13.13,6.24-6,3.19-11.8,6.85-18.32,9.08a45.56,45.56,0,0,1-8.5,2.19,6.38,6.38,0,0,1-4.82-.73c6.16-3.82,12.56-7,19.38-8.15a52.52,52.52,0,0,0,14.33-4.76c3.35-1.66,6.29-4.15,9.41-6.26,1.22,0,2-.89,2.89-1.52,7.55-5.4,13.32-12.48,18.43-20.09,3.54-5.27,6.92-10.69,9.1-16.72,1-2.53,3-4.71,3.79-7.08,3.06-8.87,7.64-17.46,6.57-27.34a2,2,0,0,0,.68-1.64c-.54-4.46.83-8.81.71-13.23,0-2.22,1.29-4.47-.09-6.66A222.41,222.41,0,0,0,211,26.93c-.08-.88.15-1.87-.78-2.48,0,0-.18.05-.21.11a4.93,4.93,0,0,0-.19.54l-.88-.26c-1.11-4-1.07-8.2-2.61-12.09-1.48-3.74-3.85-5.15-7.83-5.34-2.7-.12-3.21.87-2.55,3.1C198,17.42,196,23.93,194,30.44a6.92,6.92,0,0,1-4.17,4.83c-2.14.89-3.21,3.13-4.12,5.19a68.64,68.64,0,0,1-3.66,6.26c-.71,1.25-1.68.68-2.62.55-.24-3.33,1.16-6.59.68-10.13-1.85,1.67-3.44,7.26-2.74,9.18.27.73,1,.94,1.63,1.28-.58,1.46-1.2,2.88-2.79,3.54-.77-.72-.16-1.77-.6-2.58-1.15-.29-1.14.8-1.29,1.27-1.71,5.69-3.77,11.35-3.83,17.35,0,2.64-.81,4.45-2.95,5.8a3.73,3.73,0,0,0-3.29-.06c-3.44,1.32-4.7,4.58-6.95,6.93-1.06,1.11-2,1.9-2.88-.07-.57-1.34-1.14-.6-1.76-.14-1.93,1.45-3.71,3.09-6.07,4-.65.24-2.12,0-1.92,1.38.17,1.22,1.49.63,2.24,1.1A19,19,0,0,1,141.26,93c4.14-.26,5.3,1,3.29,4.17C144.5,97.2,144.73,97.45,144.83,97.63Zm42.9-76.4c-1.95,1.26-1.35,2.95-.9,4.52a.78.78,0,0,0,1,.35.91.91,0,0,0,.23-.17c1.23-1.59.61-3.09-.37-4.7Z"/><path id="Trazado_58" data-name="Trazado 58" class="cls-3" d="M114.06,170.37l3.53-2.68c6.06-3.19,11.7-6.92,15.81-12.57,2-1.23,3.06-3.15,4.12-5.12,1-.72,1-1.85,1.29-2.89,5.58-5.91,8.36-13.2,10.62-20.85,1.13-3.79,3.13-7.33,4.73-11s2.2-7.52,4.26-10.86c2.22-3.6,3.07-7.77,5.92-11.26,2.58-3.16,3.7-7.69,4.59-11.94.43-2.07.83-4.15,1.4-6.18.41-1.45.92-3,2.82-3.14.15,2.93.27,5.86.48,8.78a5.35,5.35,0,0,1-.56,2.26c-.83,2.34-3.46,4.58-.45,7.3.51.47-.78,1.53-1,2.37-.33,1-2.5,2.77,1,2.76,1.56,0,1,1.54.26,2.19-3.07,2.64-4.3,6.17-5.77,9.81-.61,1.53-1.83,4.1-4.17,4.75a6.14,6.14,0,0,0-4.46,5.6c-.46,3.92-2.21,7.12-3.78,10.61-2.07,4.61-4.61,8.93-6.86,13.41-6.36,12.65-14.18,24-28.34,29.13.68-2.14,3.12-2.49,4.69-4.86-2,2.17-4.44,2.64-5.28,4.94-3.29,1.12-5.81,4.29-10.33,3.86C110.73,173.14,112.75,172.17,114.06,170.37Z"/><path id="Trazado_59" data-name="Trazado 59" class="cls-3" d="M8.87,138.14c.79-4.36-1.35-8.82.24-13.31,1.65,1.39,1.37,3.43,2.31,5.14,1.56-2.16.26-4.89,2.19-6.78,1.63,1.22,1.46,3.24,1.39,4.8-.08,2,.8,3.36,1.63,5,1.77,3.49,3.16,7.17,4.69,10.77.22.51.19,1.11-.38,1.27-3.31.91-1.21,2.29-.36,3.58.47.71.93,1.42,1.71,2.62-5.6-2.75-5.62-8.46-8.63-13.14-1.33,4.54.14,7.78,2,10.8C20,156,27.17,159.33,34.41,162.51a9,9,0,0,1,1.24.8c-1.76,1-.67,2,0,3a2,2,0,0,0,2.48,1.06A17.9,17.9,0,0,1,51.66,169c1.82,1,4,.06,5.81,1-1.54,3,1.23,1.58,2.12,2.05,2.1,1.94,4.61.66,6.92.86l3.54,1c-.73,1.4-1.87.78-2.75.75-11.33-.41-22.53-2.05-33.77-3.42-.4,0-1,0-1.15-.23-3.13-4.27-8.6-3.38-12.59-5.78-2.15-1.29-4.54-2.22-6.61-3.69a4.65,4.65,0,0,1-2-4.6l3.18.68c-.93-4.86-4.92-7-7.83-9.94-2.33-2.37-4.84-4.55-6.54-7.54,4,2.08,6.11,7.9,12.09,6.21C11.67,143.4,9.42,141.09,8.87,138.14ZM24.55,160.6a16.47,16.47,0,0,1,2.18,3.59c.33,1,1.31.55,2.1.44,1.13-.16,1.17-.87,1.08-1.73s0-1.52-1.31-1.41c-1.12.09-2.3-.47-4.05-.89Z"/><path id="Trazado_60" data-name="Trazado 60" class="cls-2" d="M186.22,109a6.38,6.38,0,0,1-.88-5.81c.79-2.42.16-4-2.13-4.84-1.57-.59-1.78-1.63-1.59-3.12a49.43,49.43,0,0,0,0-13c-.52-3.75.92-6.71,2.94-9.6.36-.51.69-1.21,1.36-.86,2.11,1.1,4.41.38,6.57.81a4.64,4.64,0,0,1,3,1.84c1,1.32,1.47,3.24,4.16,2.07,1.39-.6,1.3,1.52,1.13,2.65a56.38,56.38,0,0,1-4.07,13.66c-2.31,5.45-5.22,10.62-7.79,15.94C187.84,110.93,187.3,110.41,186.22,109Z"/><path id="Trazado_61" data-name="Trazado 61" class="cls-3" d="M80.67,164.46a14.64,14.64,0,0,1,8.47-4.7c2-.37,3.7-1,5.59.7,1.47,1.35,4.11.17,4.69-2.1.49-2,1.5-2.34,3.23-2.26,2.86.11,4.91-1.78,7.33-2.88-1.12-1.81-3.07-.59-4.39-1.82a4.26,4.26,0,0,1,4-2.15c5.34.2,10.7.31,16,.81,2.54.24,5.12-.76,8,.17a23.85,23.85,0,0,1-19.75,8.26c-6-.23-11.53,1.58-17,3.73-4.28,1.69-8.37,3.91-13.17,3.76Z"/><path id="Trazado_62" data-name="Trazado 62" class="cls-2" d="M191.93,45.27c1.65-2,3.26-2.49,4.77.6.63,1.3,2.22,1.74,3.55,2.18a3.91,3.91,0,0,1,3,4c0,3,.25,6,.08,9.06a5.47,5.47,0,0,1-4.13,5.4c-2.67.69-4.76-.65-6.25-2.73a16.31,16.31,0,0,1-2.44-5.18c-.43-1.57-.92-3.11-3-3.36-1.54-.19-1.15-1.39-1-2.36C187.06,49.6,189.05,47.27,191.93,45.27Z"/><path id="Trazado_63" data-name="Trazado 63" class="cls-2" d="M199.42,118.55c-2.19,6-5.56,11.45-9.1,16.72-5.11,7.61-10.89,14.69-18.44,20.09-.88.63-1.67,1.51-2.88,1.52.87-6.35,4.48-11.35,8.14-16.29.83-1.13,2-2,1.79-3.66-.15-1.12.81-1,1.39-1.19,1.32-.52,2.64-1,4-1.48,2.74-1,4.72-2.56,4.91-5.8a4.84,4.84,0,0,1,2.13-3.52C194.07,122.86,196.73,120.69,199.42,118.55Z"/><path id="Trazado_64" data-name="Trazado 64" class="cls-3" d="M196.12,117c1.83-4.52-1.65-9.33.94-13.79-2.94-2.94.28-5.47.73-8.1a51.69,51.69,0,0,1,3-9.24c.84-2.22,1.67-4.5,3.77-6.4a22.57,22.57,0,0,1,1.14,4.72C208.14,96.75,203.07,107.07,196.12,117Z"/><path id="Trazado_65" data-name="Trazado 65" class="cls-2" d="M167,118.61c3.67.27,6.5-1,9.31-2.5.64-.34,1.45-1.12,2.16-.29a2.27,2.27,0,0,1,.33,2.28c-1,2.75-2,5.54-3.1,8.24-.6,1.4-1.57,2.67-3.41,2.6-3.47-.13-5.22,1.95-6.68,4.77-.76,1.45-.9,4.46-3.76,3.16-2.59-1.18-1.78-3.59-1-5.59.87-2.28,2-4.55,4.06-6C167.42,123.65,168.25,121.63,167,118.61Z"/><path id="Trazado_66" data-name="Trazado 66" class="cls-3" d="M217.07,83c5.72,5.38,6.29,12.64,7.19,19.78s-1.12,13.94-2.76,20.76a9.24,9.24,0,0,1-3.81,5.23,14.07,14.07,0,0,1-.31-5.21c.86-.68,1-1.72,1.29-2.67,1.16-3.24.75-6.75,1.56-10A23.75,23.75,0,0,0,219,95.69c1.75-4.7-.5-8.32-3.21-11.8Z"/><path id="Trazado_67" data-name="Trazado 67" class="cls-3" d="M73.49,180.51c3-.19,5.28,0,7.37-.51,9.19-2.21,18.87-1.11,28.05-4.41-2.42,3.89-5.3,6.23-10,6.57-6.68.47-13.32,1.21-20,.32A10.11,10.11,0,0,1,73.49,180.51Z"/><path id="Trazado_68" data-name="Trazado 68" class="cls-2" d="M219,95.69a23.82,23.82,0,0,1,1.23,15.24c-.81,3.21-.4,6.72-1.56,10-.34,1-.43,2-1.29,2.67-1.15-5.83-1-11.77-1.46-17.66-.17-1.92.37-4.4-2.36-5.28a17.65,17.65,0,0,1-.62-9.71c1.87,2.37.82,5.66,2.88,8.68C215.34,96.46,218.48,97.45,219,95.69Z"/><path id="Trazado_69" data-name="Trazado 69" class="cls-2" d="M211.07,62.6c1.39,2.2,0,4.45.1,6.67.11,4.41-1.26,8.77-.72,13.22a2,2,0,0,1-.67,1.64c-1.92-3-3.67-6.4-3.86-9.62-.22-4,1.85-7.94,3.47-11.74C209.57,62.36,210.46,62.31,211.07,62.6Z"/><path id="Trazado_70" data-name="Trazado 70" class="cls-2" d="M179,47.6c-.61-.34-1.36-.54-1.63-1.28-.7-1.92.88-7.5,2.73-9.17.49,3.54-.91,6.79-.67,10.12Z"/><path id="Trazado_71" data-name="Trazado 71" class="cls-3" d="M37.28,163.55c.92-.46,1.76.15,2.64.17.48,0,1.33,0,1.39-.24,1.49-4.7,4.26-1,6.44-1h.31c.45.66,1.46,2.17.08,1.83-3.27-.83-6.26,1.47-9.42.27A3.49,3.49,0,0,1,37.28,163.55Z"/><path id="Trazado_72" data-name="Trazado 72" class="cls-2" d="M66.51,172.9c-2.32-.21-4.82,1.08-6.92-.87-.2-.64-1.08-1.18-.62-1.87s1.4-.16,1.89.11C62.69,171.28,65.37,170.46,66.51,172.9Z"/><path id="Trazado_73" data-name="Trazado 73" class="cls-2" d="M217.07,83l-1.28.9-1.49-.79c0-1.16-.23-2.51,1.55-2.67C216.74,81.06,217.45,81.77,217.07,83Z"/><path id="Trazado_74" data-name="Trazado 74" class="cls-2" d="M118.89,171c.83-2.3,3.28-2.77,5.27-4.94-1.56,2.37-4,2.72-4.68,4.86C119.3,171.08,119.13,171.26,118.89,171Z"/><path id="Trazado_75" data-name="Trazado 75" class="cls-2" d="M215.28,79.48l-.85-.13.95-.4Z"/><path id="Trazado_76" data-name="Trazado 76" class="cls-3" d="M209.82,25.11c.1.64.47,1.72-.4,1.67s-.56-1.2-.47-1.94Z"/><path id="Trazado_77" data-name="Trazado 77" class="cls-3" d="M35.57,163.3c.64-.25,1.29-.53,1.78.26C36.7,163.88,36.16,163.41,35.57,163.3Z"/><path id="Trazado_78" data-name="Trazado 78" class="cls-1" d="M144.84,97.63c-.11-.17-.34-.43-.29-.51,2-3.14.85-4.43-3.3-4.16a18.91,18.91,0,0,0,5.69-6.89c-.75-.47-2.07.12-2.24-1.1-.2-1.41,1.27-1.14,1.92-1.38,2.36-.85,4.14-2.5,6.08-4,.61-.46,1.18-1.2,1.75.14.85,2,1.82,1.18,2.88.08,2.25-2.36,3.51-5.61,6.95-6.94a3.76,3.76,0,0,1,3.29.06c.07,3.36.28,7.27-1.34,9.79-2.73,4.25-3.76,10.63-11,10.79C151.49,93.65,148.36,96.4,144.84,97.63Z"/><path id="Trazado_79" data-name="Trazado 79" class="cls-3" d="M23.15,132.72c2,2.22,3.44,4,5,5.63.46.48.87,1.7,1.85.8a1.64,1.64,0,0,0,.2-2.23,2.17,2.17,0,0,1-.38-2.54c1.54,1.7,3.44,3.05,4.35,4.9,3.46,7.08,10.66,8.53,17,12.32-.55-2.61-2-3.39-3.55-4.15-.67-.33-1.55-1-.87-1.92s1.54-.45,2.08.28c2.52,3.34,6.71,4.87,9.07,8.44,1,1.49,2.81,1.75,4.55,2.11a37.56,37.56,0,0,1,5.34,2c-.67,1-2.45.78-2,2.67.37,1.4-1.22.71-2,.65-8.27-.73-15.47-4.46-22.64-8.2-5.06-2.64-9.68-6-13-10.68C26.24,139.91,23.89,137.07,23.15,132.72Z"/><path id="Trazado_80" data-name="Trazado 80" class="cls-3" d="M64.09,146.73c-1.71.92-3.48,1.39-4.77,2.89s-1.91-.21-2.3-1.17c-.55-1.36-1.05-2.49-2.78-2.8-1.43-.26-3.89.19-3.91-1.75a7.21,7.21,0,0,1,2.77-5.77,8.12,8.12,0,0,1,4.26-1.34c1.18-.15,1.92.19,1.62,1.71-.27,1.36-.17,2.8-.35,4.19-.44,3.51.47,4.32,4,3.42C63.09,146,63.42,146,64.09,146.73Z"/><path id="Trazado_81" data-name="Trazado 81" class="cls-1" d="M133.4,155.11c-4.11,5.66-9.75,9.39-15.81,12.58,1-1.76,1.92-3.55,3-5.26.85-1.36.76-2.31-1.55-2.83,4.85-1.79,9.2-2.8,13.21-4.75C132.52,154.72,133,155,133.4,155.11Z"/><path id="Trazado_82" data-name="Trazado 82" class="cls-1" d="M138.81,147.12c-.26,1-.31,2.17-1.28,2.89-1.84.65-2.3-.64-2-1.83C136,146.6,137.41,146.54,138.81,147.12Z"/><path id="Trazado_83" data-name="Trazado 83" class="cls-1" d="M214.3,83.1l1.49.79c2.71,3.49,5,7.1,3.21,11.8-.52,1.76-3.66.77-3.18,3.9-2.06-3-1-6.32-2.88-8.68l.21-1.27c.59-.48,1.73.71,1.84-.32.07-.71.7-2.44-1.28-2.27Z"/><path id="Trazado_84" data-name="Trazado 84" class="cls-1" d="M187.73,21.23c1,1.6,1.6,3.11.37,4.7A.77.77,0,0,1,187,26a.66.66,0,0,1-.17-.23C186.39,24.19,185.78,22.5,187.73,21.23Z"/><path id="Trazado_85" data-name="Trazado 85" class="cls-2" d="M213.71,87.05c2-.16,1.36,1.56,1.28,2.27-.1,1-1.25-.16-1.83.32A2.36,2.36,0,0,1,213.71,87.05Z"/><path id="Trazado_86" data-name="Trazado 86" class="cls-1" d="M24.55,160.6c1.75.42,2.93,1,4.05.89,1.35-.11,1.22.62,1.3,1.41s.06,1.58-1.07,1.73c-.79.11-1.77.52-2.1-.44A16.47,16.47,0,0,0,24.55,160.6Z"/></g></g></g></svg>