<svg xmlns="http://www.w3.org/2000/svg" viewBox="0 0 79.37 70.55"><defs><style>.cls-1{fill:red;}</style></defs><title>Icon awesome-map-marked-alt</title><g id="Capa_2" data-name="Capa 2"><g id="Capa_1-2" data-name="Capa 1"><path id="Icon_awesome-map-marked-alt" data-name="Icon awesome-map-marked-alt" class="cls-1" d="M39.68,0A17.36,17.36,0,0,0,22.32,17.36h0c0,7.75,11.35,21.88,15.7,27a2.17,2.17,0,0,0,3.06.27,2.29,2.29,0,0,0,.27-.27C45.7,39.24,57,25.11,57,17.36A17.36,17.36,0,0,0,39.68,0Zm0,23.15a5.79,5.79,0,1,1,5.79-5.79h0a5.78,5.78,0,0,1-5.78,5.79ZM2.77,29.75A4.43,4.43,0,0,0,0,33.85V68.34a2.21,2.21,0,0,0,2.19,2.21A2.31,2.31,0,0,0,3,70.39l19-8.66V29.61a40.64,40.64,0,0,1-2.93-6.4ZM39.68,49.56a6.62,6.62,0,0,1-5-2.34c-2.71-3.2-5.59-6.84-8.2-10.57V61.73l26.46,8.82V36.65c-2.61,3.73-5.49,7.38-8.2,10.57a6.59,6.59,0,0,1-5,2.34ZM76.34,22.2l-19,8.66V70.55l19.27-7.71a4.41,4.41,0,0,0,2.78-4.1V24.25a2.21,2.21,0,0,0-3-2Z"/></g></g></svg>