<svg xmlns="http://www.w3.org/2000/svg" viewBox="0 0 65.05 68.5"><defs><style>.cls-1{fill:#fff;}</style></defs><title>Otros</title><g id="Capa_2" data-name="Capa 2"><g id="Capa_1-2" data-name="Capa 1"><g id="teabag"><path id="Trazado_28" data-name="Trazado 28" class="cls-1" d="M61.7,2.81H51.41a3.36,3.36,0,0,0-3.35,3.35V16.21a4.13,4.13,0,0,0,.26,1.44l1,2.73c1,2.61,3.5,2.65,5.84,2.65a7,7,0,0,1-14-.31h0V14.63a14.64,14.64,0,0,0-29.27,0v4.61a1.36,1.36,0,0,0,2.72,0V14.63a11.91,11.91,0,0,1,23.82,0v8.09A9.73,9.73,0,0,0,57.91,23c2.34,0,4.86,0,5.85-2.65l1-2.73a3.92,3.92,0,0,0,.27-1.44v-10A3.36,3.36,0,0,0,61.7,2.81ZM55.19,20.3c-1,0-2.82.36-3.29-.88l-1-2.73a1.51,1.51,0,0,1-.08-.48v-10a.62.62,0,0,1,.62-.62H61.7a.63.63,0,0,1,.63.62h0V16.21a1.28,1.28,0,0,1-.09.48l-1,2.73c-.47,1.23-2.28.88-3.3.88Z"/><path id="Trazado_29" data-name="Trazado 29" class="cls-1" d="M24,39.19a4.1,4.1,0,0,0-3.82-2.65H14.65V30.36a1.37,1.37,0,0,0-2.73,0v6.18H6.37a4.13,4.13,0,0,0-3.83,2.65l-2.24,6A4.68,4.68,0,0,0,0,46.79v17A4.69,4.69,0,0,0,4.69,68.5h17.2a4.69,4.69,0,0,0,4.68-4.68v-17a4.68,4.68,0,0,0-.3-1.65ZM2.85,46.1l2.24-6a1.37,1.37,0,0,1,1.28-.88H20.21a1.36,1.36,0,0,1,1.27.88l2.24,6a6.27,6.27,0,0,1,.13,2.07c-3.65,1-6.52,2.71-10.42,1.39s-7.1-.44-10.7.78V46.79a2,2,0,0,1,.12-.69Zm19,19.68H4.69a2,2,0,0,1-2-2V53.18c3.44-.9,6.21-2.25,9.83-1,4,1.36,7.48.3,11.29-1.11V63.82a2,2,0,0,1-2,2Z"/><path id="Trazado_30" data-name="Trazado 30" class="cls-1" d="M12,25.39a1.37,1.37,0,1,0,.74-1.78A1.36,1.36,0,0,0,12,25.39Z"/><path id="Trazado_31" data-name="Trazado 31" class="cls-1" d="M8.56,56.34a4,4,0,1,0,4,4A4,4,0,0,0,8.56,56.34Zm0,5.32a1.3,1.3,0,1,1,1.3-1.3h0A1.3,1.3,0,0,1,8.56,61.66Z"/><path id="Trazado_32" data-name="Trazado 32" class="cls-1" d="M18.21,54.35a4,4,0,1,0,4,4A4,4,0,0,0,18.21,54.35Zm0,5.33a1.3,1.3,0,1,1,1.3-1.3h0A1.3,1.3,0,0,1,18.21,59.68Z"/></g></g></g></svg>