<svg xmlns="http://www.w3.org/2000/svg" viewBox="0 0 54.68 53.73"><defs><style>.cls-1{fill:#fff;}</style></defs><title>Ramen</title><g id="Capa_2" data-name="Capa 2"><g id="Capa_1-2" data-name="Capa 1"><path id="noodles" class="cls-1" d="M54.67,14.1l-.25-1.76a1.66,1.66,0,0,0-1.87-1.41h0L23.86,15.31a6.09,6.09,0,0,1,.68-2.1c.05-.11.11-.23.16-.37L51,4.94A1.65,1.65,0,0,0,52.1,2.88v0l-.53-1.7A1.66,1.66,0,0,0,49.48.08h0l-7.83,2.6a.79.79,0,0,0-.48,1,.8.8,0,0,0,1,.5L50,1.6h0l0,0,.53,1.7a0,0,0,0,1,0,0l0,0L25.34,11l0-.12,0-.11c0-.07,0-.14,0-.2l0-.13c0-.06,0-.12,0-.19s0-.1,0-.15l0-.17,0-.17s0-.06,0-.09l13-4.28a.79.79,0,0,0,.47-1,.8.8,0,0,0-1-.5L25.53,8a1.38,1.38,0,0,0-1.64-.62l-1.32.43A1.42,1.42,0,0,0,21.62,9l0,.29-1.76.58a1.39,1.39,0,0,0-1.64-.63l-1.46.49a1.39,1.39,0,0,0-.87.82c-.1.25-.21.5-.32.74l-1.88.62a2,2,0,0,0-.17-.23,1.4,1.4,0,0,0-1.48-.4l-1.61.53a1.41,1.41,0,0,0-.87.85c-.08.22-.15.45-.21.68l-1.8.59a1.64,1.64,0,0,0-.29-.35,1.36,1.36,0,0,0-1.35-.27l-1.32.43a1.4,1.4,0,0,0-.95,1.19l0,.31-1.76.58A1.66,1.66,0,0,0,.76,17.9l.12.4a1.63,1.63,0,0,0,.89,1,1.66,1.66,0,0,0-.23,1.09l.05.41a1.68,1.68,0,0,0,1.65,1.43l.2,0L5.07,22a5.9,5.9,0,0,1,.33,2.13,6,6,0,0,1-.72,3,11.16,11.16,0,0,0-.76,1.94H1.26A1.26,1.26,0,0,0,0,30.34a.57.57,0,0,0,0,.13c.48,4.85,2.6,13.8,11.33,19.45v1.37a2.45,2.45,0,0,0,2.45,2.44H34.64a2.44,2.44,0,0,0,2.44-2.44V49.91c8.73-5.65,10.84-14.6,11.33-19.44a1.27,1.27,0,0,0-1.13-1.38H24.5l0-.08a10.06,10.06,0,0,0,1.13-4.87,9.91,9.91,0,0,0-1-4.58L53.23,16a1.66,1.66,0,0,0,1.44-1.85ZM2.4,17.81l-.12-.4a.05.05,0,0,1,0-.07l1.25-.41c0,.05,0,.08,0,.13v.07c0,.06,0,.12,0,.17h0c0,.07,0,.13,0,.2l-1.13.34A.06.06,0,0,1,2.4,17.81Zm.84,2.81a.08.08,0,0,1-.07-.05l0-.41a0,0,0,0,1,0-.06l1-.15v0l.09.23,0,0a2.44,2.44,0,0,0,.1.24h0Zm18.57-7.26h0a7.07,7.07,0,0,1,.27-.69h0c.09-.22.19-.43.29-.63l0-.07,0-.1,0-.07.09-.19v0l.07-.17,0-.05a1.19,1.19,0,0,1,.08-.2v-.05a1.22,1.22,0,0,0,.07-.17l0-.07c0-.07.05-.14.07-.21s0-.05,0-.08,0-.11.05-.16l0-.08a2,2,0,0,0,.05-.24v0c.05-.25.09-.51.12-.77L24.08,9c0,.11,0,.22,0,.34a.43.43,0,0,0,0,.05c0,.1,0,.19-.05.29s0,.05,0,.08,0,.22-.07.33v0c0,.1,0,.21-.07.31l0,.1c0,.1-.06.2-.08.3v0a2.81,2.81,0,0,1-.1.31l0,.06c0,.11-.07.22-.11.33v0l-.13.34h0c-.09.24-.19.45-.28.64a7.53,7.53,0,0,0-.87,3.7v0h0v.27a.91.91,0,0,0,0,.17v.1a1.15,1.15,0,0,0,0,.19V17a6.75,6.75,0,0,0,.26,1.48h0c.05.15.09.29.14.42h0c.13.35.28.67.43,1a8.64,8.64,0,0,1,1,4.2,8.66,8.66,0,0,1-1,4.2c-.11.24-.23.49-.34.76h-.91q.24-.64.54-1.26a7.45,7.45,0,0,0,.87-3.7,7.45,7.45,0,0,0-.87-3.7,9.74,9.74,0,0,1-.6-1.46h0a8.25,8.25,0,0,1-.37-2.36h0c0-.12,0-.24,0-.37a8.6,8.6,0,0,1,.44-2.89ZM19.12,29a10.06,10.06,0,0,0,1.13-4.87,10,10,0,0,0-.71-3.94l.93-.11c.15.38.31.71.45,1a5.87,5.87,0,0,1,.73,3,5.86,5.86,0,0,1-.73,3,12,12,0,0,0-.76,1.94H19.08Zm-.27-10.34v0a1.17,1.17,0,0,0-.05-.11.3.3,0,0,0,0-.1l-.06-.17v0a3.22,3.22,0,0,1-.13-.47l1.31-.2v0c0,.15,0,.3.05.44a.09.09,0,0,0,0,0c0,.14,0,.29.07.42s0,0,0,0Zm.94-7.09,1.22-.4v0l-.05.12,0,0c-.12.25-.24.51-.36.79v0c0,.09-.07.18-.11.27v0l-1.13.34A10.59,10.59,0,0,0,19.79,11.57Zm-1.24,3.12,1.39-.42a11.65,11.65,0,0,0-.15,1.67l-1.4.21A6.53,6.53,0,0,1,18.55,14.69Zm-2.5.26h0a7.42,7.42,0,0,1,.49-2v0c0-.09.08-.17.11-.26l0,0,0-.08v-.05l.06-.11v0l0-.1L17,12c.11-.24.24-.52.36-.81l1-.33a10,10,0,0,1-.63,1.6l0,0s0,0,0,0a1.17,1.17,0,0,1,0,.11l0,.09,0,.07-.06.12v0a7.08,7.08,0,0,0-.66,3.24,8.59,8.59,0,0,0,0,.91h0s0,.08,0,.12a.53.53,0,0,1,0,.13s0,.1,0,.16a.07.07,0,0,0,0,.05,6.67,6.67,0,0,0,.42,1.53l0,.05,0,0,.06.13v0l.21.47h0l0,.05a8.54,8.54,0,0,1,1,4.2,8.52,8.52,0,0,1-1,4.2c-.12.25-.23.49-.34.76h-.91c.16-.43.33-.85.53-1.26a7.43,7.43,0,0,0,.88-3.7,7.48,7.48,0,0,0-.88-3.7c-.13-.28-.26-.56-.39-.87h0A7.88,7.88,0,0,1,16,17.36h0A10.37,10.37,0,0,1,16,16.23,10.86,10.86,0,0,1,16.05,15Zm-.54,6.15a6,6,0,0,1,.72,3,6,6,0,0,1-.72,3,11.16,11.16,0,0,0-.76,1.94H13.67l0-.08a10.18,10.18,0,0,0,1.14-4.87,10.74,10.74,0,0,0-.48-3.29l1-.12Zm-2-2.21h0c-.06-.12-.1-.24-.15-.35l1.17-.18a.08.08,0,0,0,0,0c0,.11,0,.23.07.34l0,.08c0,.11.05.22.08.33v0l-1,.13,0-.06h0c-.06-.12-.11-.24-.16-.35Zm0-5.24,1.26-.41a3,3,0,0,0-.08.32v0c0,.15-.07.3-.1.47,0,0,0,0,0,0s0,.1,0,.16l-1.39.41A5.82,5.82,0,0,1,13.5,13.65Zm.88,2.29v.29c0,.18,0,.36,0,.53L13,17c0-.18,0-.39,0-.61Zm-2.12-3.42h0ZM10.56,16a.86.86,0,0,1,0-.16v-.1a1.09,1.09,0,0,1,0-.18v-.06c0-.06,0-.13,0-.19v0l0-.19v0c0-.17,0-.33.07-.48s0-.08,0-.11l0-.09,0-.16c.07-.29.16-.58.26-.87L12.06,13a7.23,7.23,0,0,0-.68,3.27,7.29,7.29,0,0,0,.68,3.28h0a1.86,1.86,0,0,0,.1.2h0a1.24,1.24,0,0,0,.1.2v0l.11.25h0c0,.1.08.19.13.29h0a8.39,8.39,0,0,1,.72,3.63,8.63,8.63,0,0,1-1,4.2,7.58,7.58,0,0,0-.34.76H11a11.58,11.58,0,0,1,.53-1.26,7.43,7.43,0,0,0,.88-3.7,7.46,7.46,0,0,0-.88-3.7l-.12-.27h0c0-.06-.07-.13-.1-.2h0a8.51,8.51,0,0,1-.6-1.85h0a9.64,9.64,0,0,1-.15-1.61h0v-.25C10.57,16.13,10.56,16.05,10.56,16Zm-.35,5.4a5.65,5.65,0,0,1,.6,2.76,6,6,0,0,1-.72,3,11.16,11.16,0,0,0-.76,1.94H8.25l0-.08a10.06,10.06,0,0,0,1.13-4.87,11,11,0,0,0-.29-2.63Zm-.88-2.2v0c0,.1.07.2.1.3v0c0,.1.07.2.1.3h0L8.6,20h0c-.1-.22-.19-.44-.29-.64ZM9,17.59l-.23,0L9,17.55a0,0,0,0,1,0,0ZM7.57,15.93v0a2.46,2.46,0,0,1,0-.28v0L9,15.14v.06c0,.05,0,.1,0,.16s0,.19,0,.29v.25l-1.4.42v-.39ZM5.28,18h0a6.89,6.89,0,0,1-.1-.81v0a1.1,1.1,0,0,0,0-.18v-1c0-.23,0-.44,0-.65l.86-.29a1.5,1.5,0,0,0,0,.2s0,0,0,.07a2,2,0,0,0,0,.25s0,0,0,.08a2,2,0,0,0,0,.25v.09c0,.11,0,.23,0,.35v.33a7.08,7.08,0,0,0,.76,3.13v0l.1.22h0L7,20.2H7c.13.28.26.57.37.88h0a8.49,8.49,0,0,1,.48,3,8.54,8.54,0,0,1-1,4.2c-.12.24-.23.49-.34.75H5.59a12.4,12.4,0,0,1,.54-1.25A7.55,7.55,0,0,0,7,24.13a7.56,7.56,0,0,0-.87-3.7h0l-.07-.14,0-.05L6,20.08l0,0c0-.05,0-.11-.07-.17v0l-.08-.18h0c-.11-.27-.21-.56-.3-.84h0A6.13,6.13,0,0,1,5.28,18Zm41.5,12.73c-.53,4.65-2.64,12.81-10.68,18H19.73a.8.8,0,1,0,0,1.6H35.48v1a.85.85,0,0,1-.84.84H13.79a.85.85,0,0,1-.85-.84v-1H16a.8.8,0,0,0,0-1.6h-3.7c-8-5.15-10.14-13.31-10.67-18Zm6.29-16.32,0,0L24,18a5.83,5.83,0,0,1-.19-1.08l28.93-4.43h0a.05.05,0,0,1,0,0l.25,1.76s0,0,0,0Z"/></g></g></svg>