<svg xmlns="http://www.w3.org/2000/svg" viewBox="0 0 73.72 52.63"><defs><style>.cls-1{fill:#fff;}</style></defs><title>Snack</title><g id="Capa_2" data-name="Capa 2"><g id="Capa_1-2" data-name="Capa 1"><g id="Grupo_51" data-name="Grupo 51"><g id="snack"><g id="Grupo_46" data-name="Grupo 46"><g id="Grupo_45" data-name="Grupo 45"><path id="Trazado_44" data-name="Trazado 44" class="cls-1" d="M68.45,27.55a18.81,18.81,0,0,0-11.6-4,14.36,14.36,0,0,0-11.53,5.57,32,32,0,0,0-3.85,6.1c-6.06.22-9.7,2.68-11.7,4.75a12,12,0,0,0-3.55,7.52,5.3,5.3,0,0,0,1.2,3.9,5.56,5.56,0,0,0,4,1.18h0q.32,0,.63,0A31.66,31.66,0,0,0,38.21,51c2.61-.83,5.31-1.69,7.21-1.69a27.27,27.27,0,0,1,7,.92,27.37,27.37,0,0,0,6.8.91,16.61,16.61,0,0,0,9.45-2.77c3.29-2.34,5-6,5-10.55A13.11,13.11,0,0,0,68.45,27.55ZM31.52,49.82h-.08c-1.39,0-1.89-.21-2.07-.39A3.09,3.09,0,0,1,29,47.52a9.21,9.21,0,0,1,2.76-5.58,13.28,13.28,0,0,1,8.33-3.8c-.29.63-.57,1.26-.84,1.87C36.94,45.23,34.92,49.75,31.52,49.82Zm27.72-1.44a24.65,24.65,0,0,1-6.16-.84,30,30,0,0,0-7.65-1,25.35,25.35,0,0,0-7.1,1.51,52.68,52.68,0,0,0,3.48-6.92c.57-1.28,1.14-2.57,1.74-3.82a.89.89,0,0,0,.08-.17c2.81-5.79,6.31-10.79,13.23-10.79S70.94,31,70.94,37.84c0,10-9.75,10.54-11.7,10.54Z"/></g></g><g id="Grupo_48" data-name="Grupo 48"><g id="Grupo_47" data-name="Grupo 47"><path id="Trazado_45" data-name="Trazado 45" class="cls-1" d="M55.35,39.35a1.38,1.38,0,1,0,.41,1A1.38,1.38,0,0,0,55.35,39.35Z"/></g></g><g id="Grupo_50" data-name="Grupo 50"><g id="Grupo_49" data-name="Grupo 49"><path id="Trazado_46" data-name="Trazado 46" class="cls-1" d="M61.91,34.1a1.39,1.39,0,1,0,0,2,1.39,1.39,0,0,0,0-2Z"/></g></g></g><g id="snack-2"><g id="Grupo_46-2" data-name="Grupo 46-2"><g id="Grupo_45-2" data-name="Grupo 45-2"><path id="Trazado_44-2" data-name="Trazado 44-2" class="cls-1" d="M42.26,4a18.89,18.89,0,0,0-11.6-4A14.34,14.34,0,0,0,19.13,5.58a31.26,31.26,0,0,0-3.86,6.1c-6,.21-9.7,2.67-11.7,4.74A11.94,11.94,0,0,0,0,23.94a5.22,5.22,0,0,0,1.2,3.9,5.54,5.54,0,0,0,4,1.18h0l.63,0A32.42,32.42,0,0,0,12,27.44c2.61-.83,5.31-1.69,7.22-1.69a27.27,27.27,0,0,1,7,.92,27.29,27.29,0,0,0,6.79.91,16.65,16.65,0,0,0,9.46-2.77c3.29-2.34,5-6,5-10.55A13.14,13.14,0,0,0,42.26,4ZM5.33,26.24H5.25c-1.39,0-1.9-.21-2.08-.39a3.09,3.09,0,0,1-.36-1.91,9.24,9.24,0,0,1,2.76-5.58,13.24,13.24,0,0,1,8.33-3.79q-.44.94-.84,1.86C10.74,21.66,8.73,26.17,5.33,26.24ZM33,24.8A24.65,24.65,0,0,1,26.88,24a30,30,0,0,0-7.65-1,26.16,26.16,0,0,0-7.1,1.51,52.07,52.07,0,0,0,3.48-6.92c.57-1.28,1.14-2.56,1.74-3.82a.91.91,0,0,0,.09-.17c2.81-5.78,6.3-10.79,13.22-10.79S44.74,7.4,44.74,14.26c0,10-9.75,10.54-11.7,10.54Z"/></g></g><g id="Grupo_48-2" data-name="Grupo 48-2"><g id="Grupo_47-2" data-name="Grupo 47-2"><path id="Trazado_45-2" data-name="Trazado 45-2" class="cls-1" d="M29.15,15.77a1.39,1.39,0,1,0,0,2,1.43,1.43,0,0,0,.41-1A1.39,1.39,0,0,0,29.15,15.77Z"/></g></g><g id="Grupo_50-2" data-name="Grupo 50-2"><g id="Grupo_49-2" data-name="Grupo 49-2"><path id="Trazado_46-2" data-name="Trazado 46-2" class="cls-1" d="M35.71,10.52a1.39,1.39,0,1,0-2,2,1.4,1.4,0,0,0,2.38-1A1.39,1.39,0,0,0,35.71,10.52Z"/></g></g></g></g></g></g></svg>